PathFileType	4	(X/Y/Z)	C:/Users/opensim2020/Desktop/walking_exp_matlab/subject02_walking16_run.trc																																																																																																																																																							
DataRate	CameraRate	NumFrames	NumMarkers	Units	OrigDataRate	OrigDataStartFrame	OrigNumFrames																																																																																																																																																			
100	100	8	51	mm	100	261	124																																																																																																																																																			
Frame#	Time	RTOE			LSHO			LELB			RELB			RFIN			LTHI			LKNE			RWRB			RUPA			LTIB			RASI			LANK			LTOE			RSHO			RWRA			RFRM			LASI			STRN			LFHD			RTHI			RFHD			LWRB			LFIN			LUPA			RKNE			RBHD			LFRM			C7			LWRA			RTIB			CLAV			LHEE			RANK			LBHD			RBAK			RHEE			T10			LPSI			RPSI			*39			*40			*41			*42			*43			*44			*45			*46			*47			*48			*49			*50		
		X1	Y1	Z1	X2	Y2	Z2	X3	Y3	Z3	X4	Y4	Z4	X5	Y5	Z5	X6	Y6	Z6	X7	Y7	Z7	X8	Y8	Z8	X9	Y9	Z9	X10	Y10	Z10	X11	Y11	Z11	X12	Y12	Z12	X13	Y13	Z13	X14	Y14	Z14	X15	Y15	Z15	X16	Y16	Z16	X17	Y17	Z17	X18	Y18	Z18	X19	Y19	Z19	X20	Y20	Z20	X21	Y21	Z21	X22	Y22	Z22	X23	Y23	Z23	X24	Y24	Z24	X25	Y25	Z25	X26	Y26	Z26	X27	Y27	Z27	X28	Y28	Z28	X29	Y29	Z29	X30	Y30	Z30	X31	Y31	Z31	X32	Y32	Z32	X33	Y33	Z33	X34	Y34	Z34	X35	Y35	Z35	X36	Y36	Z36	X37	Y37	Z37	X38	Y38	Z38	X39	Y39	Z39	X40	Y40	Z40	X41	Y41	Z41	X42	Y42	Z42	X43	Y43	Z43	X44	Y44	Z44	X45	Y45	Z45	X46	Y46	Z46	X47	Y47	Z47	X48	Y48	Z48	X49	Y49	Z49	X50	Y50	Z50	X51	Y51	Z51
																																																																																																																																																										
109	1.08	2228.94165	82.13533	193.07237	1986.03174	1506.29968	-138.46399	2115.82373	1208.47327	-217.59952	1763.31824	1310.67871	375.59094	1977.97168	1102.05286	314.20572	1867.09094	685.289	-113.41268	1801.73767	500.10458	-89.1511	1910.07202	1108.37488	332.88486	1824.12964	1426.57813	308.17999	1658.16858	374.71771	-75.09437	2049.76514	997.3443	176.61368	1540.0896	183.09056	-40.02528	1613.74805	40.05918	-23.03759	1945.10938	1523.83203	202.68973	1930.70203	1148.8335	297.00134	1837.10437	1210.81152	359.73322	2014.98718	978.45923	-73.95237	2077.90405	1291.63831	46.83245	2038.4657	1765.41882	-31.82871	2072.68018	714.84985	243.21747	2032.58813	1749.34607	111.17004	2181.09229	1362.10059	-25.15758	2177.86255	1419.53491	10.91473	2049.68457	1331.40698	-217.8645	2150.12183	524.49066	210.10182	1909.13574	1644.82202	93.7888	2161.55493	1278.82983	-112.11303	1892.68323	1535.06543	18.13768	2129.12524	1383.83569	-33.67709	2109.07349	337.95407	229.75175	2034.26538	1467.70386	30.98632	1511.2865	193.05341	14.6389	2080.72461	142.77542	205.33899	1927.2323	1664.43921	-46.72871	1825.64783	1371.59961	84.56133	2038.32959	87.38754	152.32262	1827.41833	1271.17017	47.58082	1824.17944	1053.73669	24.6855	1832.57422	1061.64063	140.45357	NaN	NaN	NaN	2846.06006	1034.45142	-3357.28174	NaN	NaN	NaN	NaN	NaN	NaN	NaN	NaN	NaN	NaN	NaN	NaN	NaN	NaN	NaN	NaN	NaN	NaN	NaN	NaN	NaN	NaN	NaN	NaN	1918.9906	1808.28137	48.55094	NaN	NaN	NaN
110	1.09	2318.05054	89.66396	183.69215	2026.30261	1512.26379	-132.30582	2161.71729	1221.28796	-223.90257	1790.9834	1319.88428	372.81433	2005.39319	1108.60059	317.89307	1898.50684	692.86035	-114.87003	1824.72095	511.28308	-91.18766	1936.98767	1115.69446	334.31409	1856.94409	1435.44165	307.03391	1679.87512	386.39603	-77.96358	2092.24146	1003.66193	174.87411	1562.5675	193.60225	-49.57954	1621.33862	44.04774	-30.01977	1980.58813	1528.26782	203.82391	1959.3009	1156.27222	299.47083	1864.09644	1219.3988	359.39136	2056.9021	984.33478	-73.6609	2117.5415	1297.86121	51.27899	2077.69971	1768.09192	-28.79257	2113.76587	721.87756	245.28439	2071.6521	1752.64429	114.1052	2219.81934	1369.82153	-24.66138	2213.89185	1425.84229	13.18017	2093.80615	1343.15344	-218.3092	2190.47974	526.61292	213.30386	1947.07251	1649.72925	97.02892	2204.22363	1288.95935	-114.74872	1930.85535	1539.23474	20.51538	2168.6792	1391.09033	-33.72656	2170.32373	336.17828	230.8073	2072.04419	1473.55762	35.65951	1535.7666	207.9494	5.4885	2164.64478	138.92064	204.85829	1966.02856	1668.70313	-42.29222	1864.79211	1375.28821	85.09512	2126.23486	81.35769	151.74597	1866.78845	1274.36865	47.11844	1865.97229	1058.28564	26.28164	1874.66638	1066.16858	142.08296	NaN	NaN	NaN	2845.98657	1034.51245	-3357.3418	NaN	NaN	NaN	NaN	NaN	NaN	NaN	NaN	NaN	NaN	NaN	NaN	NaN	NaN	NaN	NaN	NaN	NaN	NaN	NaN	NaN	NaN	NaN	NaN	1959.65479	1812.99768	51.66178	NaN	NaN	NaN
111	1.1	2403.02197	99.17937	174.83356	2065.78931	1516.59009	-126.23924	2206.25317	1232.81067	-230.70448	1819.4696	1327.49695	370.72208	2034.24988	1114.09326	321.14157	1930.21191	700.24658	-116.63985	1848.05273	522.46863	-91.74047	1965.55359	1121.92554	335.82788	1889.6759	1442.6709	305.84415	1703.03162	396.01141	-81.28077	2134.63428	1009.32562	172.83328	1582.00574	206.24202	-55.59444	1637.90466	53.9845	-40.63623	2015.86377	1531.37622	204.8611	1988.96838	1162.48462	301.88263	1892.29016	1226.60669	359.28165	2098.73706	990.00513	-73.52089	2157.13843	1303.56897	55.63566	2116.78198	1769.03699	-25.78911	2156.0752	728.11743	249.10965	2110.67407	1754.3916	117.14069	2258.74365	1374.88428	-24.70441	2250.79297	1429.06641	15.42064	2136.34326	1353.53699	-219.08978	2229.55859	527.20898	216.92238	1985.19043	1652.68542	101.17199	2246.25146	1297.1322	-118.02236	1968.69727	1542.14636	22.94926	2207.42603	1395.49817	-33.58747	2228.65137	335.75446	232.80853	2109.18164	1478.05652	39.91417	1557.78015	221.36336	-0.71639	2245.30322	138.68178	204.53171	2003.10376	1671.76733	-39.81525	1903.26624	1378.17004	85.65141	2211.54126	80.01572	151.30858	1906.44836	1276.27332	46.73914	1907.82153	1062.30957	28.22182	1917.24316	1069.63892	143.84682	NaN	NaN	NaN	2845.99634	1034.44165	-3357.09106	NaN	NaN	NaN	NaN	NaN	NaN	NaN	NaN	NaN	NaN	NaN	NaN	NaN	NaN	NaN	NaN	NaN	NaN	NaN	NaN	NaN	NaN	NaN	NaN	2000.03857	1816.66443	54.88881	NaN	NaN	NaN
112	1.11	2482.55786	110.56497	167.29813	2104.50391	1519.39832	-120.57751	2249.38843	1242.86621	-237.88	1848.87488	1333.35461	369.01456	2064.71875	1118.36584	324.10968	1961.95129	707.46893	-117.87112	1873.87988	531.74902	-91.79823	1995.65625	1126.65002	337.82584	1922.48901	1448.43994	305.5134	1727.2594	406.14285	-84.58987	2177.02319	1014.1557	170.9498	1602.28564	219.68916	-58.63381	1659.69775	67.81572	-52.1044	2051.11499	1532.98364	205.84941	2019.88574	1167.2312	304.16266	1921.70862	1232.23425	359.54083	2140.45044	995.37463	-73.53374	2196.47827	1308.37939	59.8406	2155.79346	1768.80994	-22.75447	2198.36768	731.64972	252.13533	2149.75391	1754.82642	120.37939	2297.90601	1377.17859	-25.19511	2288.58789	1429.23682	17.67604	2177.19751	1362.28345	-220.18201	2267.87305	526.48718	220.19847	2024.14099	1654.71313	105.4545	2288.03149	1303.33545	-121.73943	2007.05017	1543.77161	25.19835	2246.396	1397.20508	-33.33708	2284.07593	336.11652	234.33841	2146.13745	1480.86865	43.77719	1578.3833	232.29291	-3.21879	2321.78491	141.55151	204.71416	2040.79712	1672.06519	-36.26556	1941.47058	1380.06067	86.23904	2292.26196	82.25847	152.16701	1946.20288	1277.22839	46.66835	1949.78467	1065.90759	30.58514	1959.7915	1072.20349	145.71902	NaN	NaN	NaN	2845.94507	1034.49316	-3356.98877	NaN	NaN	NaN	NaN	NaN	NaN	NaN	NaN	NaN	NaN	NaN	NaN	NaN	NaN	NaN	NaN	NaN	NaN	NaN	NaN	NaN	NaN	NaN	NaN	2039.88269	1818.14832	57.88157	NaN	NaN	NaN
113	1.12	2555.01855	123.94537	162.32022	2142.74341	1521.06445	-115.56947	2291.02173	1251.38586	-245.25841	1879.20154	1337.0387	367.93378	2096.90063	1121.42517	326.9234	1994.26855	714.82367	-117.97057	1903.93823	538.76324	-91.85715	2027.28833	1129.82361	339.88269	1955.21643	1452.12244	304.80426	1754.40662	419.07343	-85.91529	2218.58716	1017.78943	168.98936	1625.25903	233.89549	-60.42381	1683.8114	83.40698	-63.99655	2086.46191	1533.13757	207.19397	2052.07959	1170.48901	306.38034	1952.40259	1235.97229	360.15674	2181.99438	1000.40997	-73.91361	2235.2312	1311.88599	64.16617	2194.33813	1767.9137	-19.58704	2240.37231	731.64606	255.57957	2188.48096	1754.39978	123.56133	2337.40845	1376.70837	-26.06696	2327.15063	1426.18555	19.83761	2216.50195	1369.34521	-221.85725	2306.48926	524.58331	222.43507	2061.99487	1654.59534	108.81596	2329.01099	1307.21863	-126.19008	2044.26099	1543.995	27.56655	2285.91187	1396.86853	-31.97947	2337.40991	336.77139	235.95114	2183.56299	1482.32776	47.39584	1601.72083	242.33333	-3.29266	2392.87427	146.07393	205.69502	2080.90283	1670.60156	-31.46995	1979.32959	1381.01074	86.70605	2366.54102	86.61578	153.69299	1985.37134	1277.15991	46.86895	1991.72644	1068.36218	32.78823	2001.9469	1073.67603	147.19363	NaN	NaN	NaN	2845.28931	1034.37915	-3360.26294	NaN	NaN	NaN	NaN	NaN	NaN	NaN	NaN	NaN	NaN	NaN	NaN	NaN	NaN	NaN	NaN	NaN	NaN	NaN	NaN	NaN	NaN	NaN	NaN	2078.66211	1818.79724	60.4748	NaN	NaN	NaN
114	1.13	2621.13013	137.96504	161.37439	2179.85059	1521.57617	-111.76373	2331.22168	1258.61658	-252.74197	1910.15515	1338.02307	366.03827	2130.56738	1123.09473	329.80658	2028.01465	721.88885	-117.28814	1937.16077	544.67627	-92.35816	2060.79053	1131.69116	342.67191	1988.16211	1453.24048	303.81815	1782.96899	431.01215	-84.79569	2259.4165	1020.37708	167.02553	1650.35034	247.74261	-61.60866	1707.24097	97.58617	-77.78616	2121.72974	1531.89001	208.95616	2085.36841	1171.89368	308.64899	1984.55627	1237.74329	360.91043	2222.31104	1004.15839	-73.50225	2274.15088	1313.84387	69.17606	2232.75732	1766.82874	-16.4365	2281.43262	728.2464	259.67734	2226.69995	1753.31628	126.72616	2377.34229	1373.28394	-27.18723	2366.59033	1419.74927	21.91857	2254.11182	1374.73474	-224.08206	2346.71436	521.7981	223.54408	2099.93408	1653.59961	111.83107	2369.23242	1308.73975	-130.89653	2081.11768	1543.18018	29.42827	2325.85986	1393.578	-30.87029	2389.04297	337.46487	237.50311	2220.99048	1482.38391	50.88527	1627.12756	251.991	-3.05039	2457.86133	151.06456	207.56709	2115.31763	1670.60876	-29.60372	2016.88159	1380.75037	87.26538	2435.42871	90.36775	155.88242	2024.46106	1276.6438	47.79914	2033.81018	1070.05688	34.87817	2043.5249	1074.52295	148.55591	NaN	NaN	NaN	2845.9812	1034.46216	-3357.24878	NaN	NaN	NaN	NaN	NaN	NaN	NaN	NaN	NaN	NaN	NaN	NaN	NaN	NaN	NaN	NaN	NaN	NaN	NaN	NaN	NaN	NaN	NaN	NaN	2117.60205	1817.1925	64.7081	NaN	NaN	NaN
115	1.14	2680.96802	147.03912	166.03789	2216.39917	1521.25281	-108.87858	2369.67944	1264.44324	-260.09253	1942.73389	1336.92627	365.74442	2165.67236	1123.28003	332.8006	2064.44922	728.73163	-116.77606	1972.09778	550.14319	-93.07985	2095.58301	1131.56079	345.46304	2021.78882	1452.14124	303.50906	1813.61841	440.98413	-82.81493	2300.77222	1022.00305	165.88458	1677.14539	260.74362	-62.33143	1730.28162	111.16797	-91.97072	2157.31519	1529.4447	211.44328	2119.91504	1171.50452	310.89734	2018.33167	1237.50891	361.95746	2263.14893	1007.24615	-73.31006	2311.05151	1314.51038	71.15757	2270.5686	1765.40637	-12.85555	2321.96289	722.8855	264.76071	2264.7146	1751.55835	130.1564	2417.72803	1366.922	-28.56654	2406.94897	1410.08533	23.75388	2290.65161	1378.84021	-226.94814	2388.94458	518.68689	224.0399	2138.65112	1652.56213	116.42184	2408.69995	1307.93579	-135.88019	2118.10693	1541.02271	31.48376	2366.25879	1387.34973	-30.02014	2439.09277	337.87219	238.33366	2258.01978	1481.22302	54.26801	1654.48999	261.28314	-2.31289	2516.16528	155.202	208.79047	2150.36377	1668.77625	-25.73223	2054.14355	1379.09729	88.82235	2496.02637	93.86755	157.05574	2063.35474	1275.42883	49.10019	2075.67017	1071.06958	36.88682	2084.59204	1074.61389	149.76208	NaN	NaN	NaN	2845.79492	1034.34534	-3357.62183	NaN	NaN	NaN	NaN	NaN	NaN	NaN	NaN	NaN	NaN	NaN	NaN	NaN	NaN	NaN	NaN	NaN	NaN	NaN	NaN	NaN	NaN	NaN	NaN	2155.177	1814.93958	68.27966	NaN	NaN	NaN
116	1.15	2733.11987	149.50743	175.80389	2252.60156	1520.2655	-106.65852	2407.03711	1269.16125	-267.0426	1976.69006	1333.54578	366.08011	2202.01855	1121.69373	335.9433	2104.21216	733.41656	-117.03719	2008.22424	554.66901	-93.81225	2131.82544	1129.47546	348.44644	2056.14209	1448.25403	303.49994	1845.79126	448.92694	-81.51396	2341.67236	1021.49036	165.66223	1705.23462	272.75119	-61.89853	1753.74609	125.21623	-103.79229	2193.03296	1525.99548	214.46951	2155.78003	1169.05334	313.22302	2053.58325	1235.10583	363.27765	2304.05273	1008.59277	-72.57887	2349.15137	1313.93958	75.23804	2308.81567	1763.64392	-9.64224	2362.25513	716.40601	270.40262	2302.53589	1748.95447	133.43816	2458.41797	1357.56885	-30.44742	2448.43262	1397.14124	25.08712	2325.60034	1381.38379	-230.35928	2433.71704	516.08618	224.19872	2175.70264	1649.71167	118.03366	2447.5459	1305.15063	-141.12596	2154.99292	1538.3374	34.19018	2406.96289	1378.13049	-29.67158	2488.16284	338.00677	238.99164	2295.03906	1479.23962	57.64748	1683.84961	269.96408	-0.65132	2566.74878	156.50336	209.50519	2191.28149	1667.43738	-23.41898	2091.09155	1376.23315	90.71635	2548.7627	95.43691	155.8764	2102.45947	1273.45923	51.07767	2116.96606	1071.36584	38.48808	2125.54883	1073.94434	151.64462	NaN	NaN	NaN	2845.2251	1034.28735	-3360.396	NaN	NaN	NaN	NaN	NaN	NaN	NaN	NaN	NaN	NaN	NaN	NaN	NaN	NaN	NaN	NaN	NaN	NaN	NaN	NaN	NaN	NaN	NaN	NaN	2192.40845	1812.27966	71.73933	NaN	NaN	NaN
